<svg version="1.1" xmlns="http://www.w3.org/2000/svg" xmlns:xlink="http://www.w3.org/1999/xlink" x="0px" y="0px" viewBox="0 0 1000 1000" enable-background="new 0 0 1000 1000" xml:space="preserve">
<g fill="currentColor"><path d="M592.8,500l378.1-378.1c25.5-25.5,25.5-67.3,0-92.8c-25.5-25.5-67.3-25.5-92.8,0L500,407.2L121.9,29.1c-25.5-25.5-67.3-25.5-92.8,0c-25.5,25.5-25.5,67.3,0,92.8l378,378l-378,378.1c-25.5,25.5-25.5,67.3,0,92.8c25.5,25.5,67.3,25.5,92.8,0l378-378.1l378.1,378.1c25.5,25.5,67.3,25.5,92.8,0c25.5-25.5,25.5-67.3,0-92.8L592.8,500z"/></g>
</svg>