<?xml version="1.0" encoding="UTF-8" standalone="no"?>
<svg
   xmlns:dc="http://purl.org/dc/elements/1.1/"
   xmlns:cc="http://creativecommons.org/ns#"
   xmlns:rdf="http://www.w3.org/1999/02/22-rdf-syntax-ns#"
   xmlns:svg="http://www.w3.org/2000/svg"
   xmlns="http://www.w3.org/2000/svg"
   id="svg8"
   version="1.1"
   viewBox="0 0 10.991459 10.991459"
   height="10.991459mm"
   width="10.991459mm">
  <defs
     id="defs2" />
  <metadata
     id="metadata5">
    <rdf:RDF>
      <cc:Work
         rdf:about="">
        <dc:format>image/svg+xml</dc:format>
        <dc:type
           rdf:resource="http://purl.org/dc/dcmitype/StillImage" />
        <dc:title></dc:title>
      </cc:Work>
    </rdf:RDF>
  </metadata>
  <g
     transform="translate(-3.2678814,-51.590445)"
     id="layer1">
    <circle
       r="5.4957294"
       cy="57.086174"
       cx="8.7636108"
       id="path857"
       style="opacity:1;fill:#ba01f4;fill-opacity:1;fill-rule:evenodd;stroke:none;stroke-width:0.28965116;stroke-linecap:round;stroke-miterlimit:4;stroke-dasharray:2.31720916, 2.31720916;stroke-dashoffset:0;stroke-opacity:1" />
    <rect
       style="opacity:1;fill:#000000;fill-opacity:1;fill-rule:evenodd;stroke:none;stroke-width:0.36116776;stroke-linecap:round;stroke-miterlimit:4;stroke-dasharray:2.88934202, 2.88934202;stroke-dashoffset:0;stroke-opacity:1"
       id="rect869"
       width="1.5398456"
       height="3.1490681"
       x="6.2579956"
       y="58.134926" />
    <rect
       y="57.430847"
       x="5.822731"
       height="3.6050968"
       width="1.5398456"
       id="rect867"
       style="opacity:1;fill:#ffffff;fill-opacity:1;fill-rule:evenodd;stroke:none;stroke-width:0.38643497;stroke-linecap:round;stroke-miterlimit:4;stroke-dasharray:3.09147962, 3.09147962;stroke-dashoffset:0;stroke-opacity:1" />
    <g
       transform="translate(140.45501,-15.48909)"
       id="text834"
       style="font-style:normal;font-variant:normal;font-weight:600;font-stretch:normal;font-size:10.58333302px;line-height:1000;font-family:FreeSans;-inkscape-font-specification:'FreeSans, Semi-Bold';font-variant-ligatures:normal;font-variant-caps:normal;font-variant-numeric:normal;font-feature-settings:normal;text-align:start;letter-spacing:0px;word-spacing:0px;writing-mode:lr-tb;text-anchor:start;fill:#ffffff;fill-opacity:1;stroke:none;stroke-width:0.26458332"
       aria-label="SF">
      <path
         d="m -133.02546,70.670116 c 0,0.282222 0.47064,0.721903 0.67525,0.863014 0.20461,0.134055 0.58914,0.257527 1.15358,0.370416 l 1.2065,0.232833 c 0.71261,0.141111 1.2312,0.381 1.55575,0.719667 0.32456,0.331611 0.48684,0.800806 0.48684,1.407583 0,0.783167 -0.2787,1.397 -0.83609,1.8415 -0.55739,0.437445 -1.3335,0.656167 -2.32833,0.656167 -0.98778,0 -1.75683,-0.218722 -2.30716,-0.656167 -0.54328,-0.437444 -1.05458,-0.853942 -1.10397,-1.679442 l 1.76013,-0.214974 c 0.0282,0.416277 0.19048,0.733777 0.48683,0.9525 0.29633,0.218722 0.71261,0.328083 1.24884,0.328083 0.47977,0 0.85724,-0.09172 1.13241,-0.275167 0.28223,-0.183444 0.42334,-0.437444 0.42334,-0.762 0,-0.310444 -0.10936,-0.550333 -0.32809,-0.719666 -0.21872,-0.169333 -0.59266,-0.303389 -1.12183,-0.402167 l -1.0795,-0.211667 c -0.78317,-0.148167 -1.34055,-0.381 -1.67216,-0.6985 -0.33161,-0.3175 -0.49742,-0.776111 -0.49742,-1.375833 0.47979,-0.163498 1.15316,-0.882997 1.14508,-0.37618 z"
         style="font-style:normal;font-variant:normal;font-weight:600;font-stretch:normal;font-size:10.58333302px;font-family:FreeSans;-inkscape-font-specification:'FreeSans, Semi-Bold';font-variant-ligatures:normal;font-variant-caps:normal;font-variant-numeric:normal;font-feature-settings:normal;text-align:start;writing-mode:lr-tb;text-anchor:start;fill:#000000;stroke-width:0.26458332"
         id="path861" />
      <path
         id="path836"
         style="font-style:normal;font-variant:normal;font-weight:600;font-stretch:normal;font-size:10.58333302px;font-family:FreeSans;-inkscape-font-specification:'FreeSans, Semi-Bold';font-variant-ligatures:normal;font-variant-caps:normal;font-variant-numeric:normal;font-feature-settings:normal;text-align:start;writing-mode:lr-tb;text-anchor:start;fill:#ffffff;stroke-width:0.26458332"
         d="m -132.98129,69.786904 c 0,0.282222 0.10231,1.183778 0.30692,1.324889 0.20461,0.134055 0.58914,0.257527 1.15358,0.370416 l 1.2065,0.232833 c 0.71261,0.141111 1.2312,0.381 1.55575,0.719667 0.32456,0.331611 0.48684,0.800806 0.48684,1.407583 0,0.783167 -0.2787,1.397 -0.83609,1.8415 -0.55739,0.437445 -1.3335,0.656167 -2.32833,0.656167 -0.98778,0 -1.75683,-0.218722 -2.30716,-0.656167 -0.54328,-0.437444 -0.83961,-1.068916 -0.889,-1.894416 h 1.54516 c 0.0282,0.416277 0.19048,0.733777 0.48683,0.9525 0.29633,0.218722 0.71261,0.328083 1.24884,0.328083 0.47977,0 0.85724,-0.09172 1.13241,-0.275167 0.28223,-0.183444 0.42334,-0.437444 0.42334,-0.762 0,-0.310444 -0.10936,-0.550333 -0.32809,-0.719666 -0.21872,-0.169333 -0.59266,-0.303389 -1.12183,-0.402167 l -1.0795,-0.211667 c -0.78317,-0.148167 -1.34055,-0.381 -1.67216,-0.6985 -0.33161,-0.3175 -0.49742,-0.776111 -0.49742,-1.375833 0.47979,-0.163498 1.52149,-1.344872 1.51341,-0.838055 z" />
      <path
         d="m -132.65717,73.277408 v 0.346604 h -1.54516 l -0.0373,-3.833418 -0.005,-0.905269 h 0.72213 4.54452 v 1.322916 h -3.67915 v 1.74625 0 z"
         style="font-style:normal;font-variant:normal;font-weight:600;font-stretch:normal;font-size:10.58333302px;font-family:FreeSans;-inkscape-font-specification:'FreeSans, Semi-Bold';font-variant-ligatures:normal;font-variant-caps:normal;font-variant-numeric:normal;font-feature-settings:normal;text-align:start;writing-mode:lr-tb;text-anchor:start;fill:#000000;stroke-width:0.26458332"
         id="path859" />
      <path
         id="path838"
         style="font-style:normal;font-variant:normal;font-weight:600;font-stretch:normal;font-size:10.58333302px;font-family:FreeSans;-inkscape-font-specification:'FreeSans, Semi-Bold';font-variant-ligatures:normal;font-variant-caps:normal;font-variant-numeric:normal;font-feature-settings:normal;text-align:start;writing-mode:lr-tb;text-anchor:start;fill:#ffffff;stroke-width:0.26458332"
         d="m -133.08712,72.913606 v 0.87577 h -1.54516 l -0.0373,-4.362584 -0.005,-0.905269 h 0.72213 4.69653 v 1.322916 h -3.83116 v 1.74625 0 z" />
    </g>
  </g>
</svg>
