<svg xmlns="http://www.w3.org/2000/svg" width="14.6652" height="14.035" viewBox="0 0 3.8802 3.7134">
  <path  transform="matrix(.26459 0 0 .26459 0 0)" d="M7.6484375 0C7.3517397 0 7.053517.11445167 6.8261719.34179688c-.4546905.45469038-.4546905 1.18593452 0 1.64062502L10.699219 5.8554688H8.3964844l3.9628906 3.9472656 1.964844-1.9648438c.107691-.1073902.193059-.2358347.251953-.3789062.03735-.090252.04311-.1859728.05664-.28125.0015-.010614.0034-.020973.0059-.03125.01054-.043218.02734-.084376.02734-.1308594 0-.066204-.02356-.1243722-.03906-.1855469-.0028-.010874-.0037-.022097-.0059-.033203-.01464-.074279-.01559-.1498339-.04492-.2207031-.05682-.1372889-.140013-.2669661-.251953-.3789063-.0017-.00173-.0041-.00219-.0059-.00391-.0017-.00166-.0022-.00421-.0039-.00586L8.46875.34179688C8.2414048.11445167 7.9451353 0 7.6484375 0zM1.1601562 5.8554688C.51712701 5.8554688 0 6.3725957 0 7.015625 0 7.6586543.51712701 8.1777344 1.1601562 8.1777344H6.2675781L3.9355469 5.8554688zM8.4882812 10.390625l-1.6621093 1.662109c-.4546905.454691-.4546905 1.185936 0 1.640625.4546903.454691 1.1878876.454691 1.6425781 0l1.664062-1.664062z" fill="currentColor" fill-rule="evenodd"/>
  <path fill="currentColor" transform="rotate(45.1032) skewX(.1338)" fill-rule="evenodd" d="M0.6395 -0.2833H4.7838V0.13490000000000002H0.6395z"/>
</svg>
