
<svg xmlns="http://www.w3.org/2000/svg" viewBox="0 0 3.8802 3.7134" height="14.035" width="14.6652">
  <path fill="currentColor" d="M 7.6484375 0 C 7.3517447 1.110223e-16 7.0535132 0.1144555 6.8261719 0.34179688 C 6.3714891 0.79647961 6.3714891 1.5277391 6.8261719 1.9824219 L 10.699219 5.8554688 L 1.1601562 5.8554688 C 0.51713779 5.8554688 0 6.3726065 0 7.015625 C -1.4802974e-16 7.6586435 0.51713779 8.1777344 1.1601562 8.1777344 L 10.701172 8.1777344 L 6.8261719 12.052734 C 6.3714891 12.507417 6.3714891 13.238677 6.8261719 13.693359 C 7.2808546 14.148042 8.0140672 14.148042 8.46875 13.693359 L 14.324219 7.8378906 C 14.431908 7.7305022 14.517279 7.6020535 14.576172 7.4589844 C 14.613526 7.3687337 14.619277 7.27301 14.632812 7.1777344 C 14.634351 7.1671204 14.636165 7.1567614 14.638672 7.1464844 C 14.649213 7.1032674 14.666016 7.0621077 14.666016 7.015625 C 14.666016 6.9494219 14.642458 6.8912517 14.626953 6.8300781 C 14.624197 6.8192047 14.623286 6.8079805 14.621094 6.796875 C 14.606449 6.7225972 14.605504 6.6470399 14.576172 6.5761719 C 14.51935 6.4388853 14.436157 6.3092039 14.324219 6.1972656 C 14.322486 6.1955332 14.3201 6.1950786 14.318359 6.1933594 C 14.316683 6.1917028 14.31614 6.1891467 14.314453 6.1875 L 8.46875 0.34179688 C 8.2414086 0.1144555 7.9451303 -1.4802974e-16 7.6484375 0 z" transform="matrix(.26459 0 0 .26459 0 0)" fill-rule="evenodd"/>
</svg>
