<svg xmlns="http://www.w3.org/2000/svg" viewBox="0 0 3.8802 3.7134" height="14.035" width="14.6652">
  <path d="M 7.6484375 0 C 7.3517397 0 7.053517 0.11445167 6.8261719 0.34179688 C 6.3714814 0.79648726 6.3714814 1.5277314 6.8261719 1.9824219 L 10.699219 5.8554688 L 1.1601562 5.8554688 C 0.51712701 5.8554688 0 6.3725957 0 7.015625 C 0 7.6586543 0.51712701 8.1777344 1.1601562 8.1777344 L 10.701172 8.1777344 L 6.8261719 12.052734 C 6.3714814 12.507425 6.3714814 13.23867 6.8261719 13.693359 C 7.2808622 14.14805 8.0140595 14.14805 8.46875 13.693359 L 14.318359 7.84375 L 14.324219 7.8398438 C 14.324601 7.8394616 14.323837 7.8382733 14.324219 7.8378906 C 14.430342 7.73147 14.515812 7.6041993 14.574219 7.4628906 C 14.574785 7.4615305 14.575611 7.4603472 14.576172 7.4589844 C 14.577255 7.4563684 14.575262 7.4537842 14.576172 7.4511719 C 14.630007 7.3171076 14.664062 7.1714097 14.664062 7.0175781 C 14.664062 6.863081 14.63045 6.7167376 14.576172 6.5820312 C 14.57565 6.580349 14.57678 6.577801 14.576172 6.5761719 C 14.575631 6.5748642 14.574765 6.5735719 14.574219 6.5722656 C 14.515812 6.4307735 14.430342 6.3039337 14.324219 6.1972656 C 14.321533 6.194566 14.319118 6.1921262 14.316406 6.1894531 C 14.315759 6.1888155 14.315102 6.1881361 14.314453 6.1875 L 8.46875 0.34179688 C 8.2414048 0.11445167 7.9451353 -7.4014868e-17 7.6484375 0 z" transform="matrix(.26459 0 0 .26459 0 0)" fill="currentColor" fill-rule="evenodd"/>
</svg>